<svg width="3445" height="1452" fill="none" xmlns="http://www.w3.org/2000/svg"><path d="M75 108h1891v1252l-419.5-368.355H75V108Z" fill="#FFDE34"/><path d="M262.155 711.838c-16.406 0-30.493-5.8-42.259-17.4-11.6-11.601-17.4-25.687-17.4-42.259 0-16.241 5.8-30.161 17.4-41.761 11.766-11.601 25.853-17.401 42.259-17.401 15.909 0 29.829 5.8 41.761 17.401 11.932 11.6 17.898 25.52 17.898 41.761 0 10.937-2.817 20.964-8.452 30.078-5.469 8.949-12.677 16.158-21.626 21.627-8.949 5.303-18.809 7.954-29.581 7.954Zm0-249.822c-16.406 0-30.493-5.801-42.259-17.401-11.6-11.6-17.4-25.687-17.4-42.258 0-16.241 5.8-30.079 17.4-41.513 11.766-11.601 25.853-17.401 42.259-17.401 15.909 0 29.829 5.8 41.761 17.401 11.932 11.434 17.898 25.272 17.898 41.513 0 11.103-2.817 21.212-8.452 30.326-5.469 8.949-12.677 16.075-21.626 21.378-8.949 5.303-18.809 7.955-29.581 7.955ZM410.743 771V261.909h203.835c37.453 0 68.691 5.552 93.715 16.655 25.024 11.103 43.833 26.515 56.428 46.236 12.594 19.555 18.892 42.093 18.892 67.613 0 19.887-3.978 37.37-11.932 52.451-7.955 14.914-18.892 27.178-32.813 36.789-13.754 9.446-29.498 16.158-47.23 20.135v4.972c19.389.829 37.536 6.297 54.439 16.406 17.069 10.109 30.907 24.278 41.513 42.507 10.606 18.064 15.909 39.607 15.909 64.631 0 27.012-6.712 51.125-20.135 72.337-13.258 21.046-32.895 37.701-58.913 49.964C698.433 764.868 666.366 771 628.25 771H410.743Zm107.635-87.997h87.749c29.995 0 51.87-5.717 65.625-17.152 13.755-11.601 20.632-27.012 20.632-46.236 0-14.086-3.397-26.515-10.192-37.287-6.794-10.772-16.489-19.223-29.084-25.355-12.429-6.132-27.261-9.197-44.495-9.197h-90.235v135.227Zm0-208.061h79.794c14.749 0 27.841-2.569 39.276-7.706 11.6-5.303 20.715-12.761 27.344-22.372 6.794-9.612 10.191-21.13 10.191-34.553 0-18.395-6.546-33.227-19.637-44.496-12.927-11.269-31.321-16.903-55.185-16.903h-81.783v126.03Zm459.064-213.033V771H871.548V261.909h105.894Zm257.338 516.548c-38.61 0-72-8.203-100.17-24.609-28.01-16.572-49.64-39.607-64.88-69.105-15.25-29.664-22.87-64.051-22.87-103.161 0-39.441 7.62-73.911 22.87-103.409 15.24-29.664 36.87-52.699 64.88-69.105 28.17-16.572 61.56-24.858 100.17-24.858 38.62 0 71.93 8.286 99.93 24.858 28.18 16.406 49.89 39.441 65.13 69.105 15.25 29.498 22.87 63.968 22.87 103.409 0 39.11-7.62 73.497-22.87 103.161-15.24 29.498-36.95 52.533-65.13 69.105-28 16.406-61.31 24.609-99.93 24.609Zm.5-82.031c17.57 0 32.23-4.971 44-14.915 11.77-10.109 20.63-23.863 26.6-41.264 6.13-17.4 9.2-37.204 9.2-59.41 0-22.207-3.07-42.01-9.2-59.411-5.97-17.4-14.83-31.155-26.6-41.264-11.77-10.109-26.43-15.163-44-15.163-17.73 0-32.65 5.054-44.74 15.163-11.93 10.109-20.97 23.864-27.1 41.264-5.96 17.401-8.95 37.204-8.95 59.411 0 22.206 2.99 42.01 8.95 59.41 6.13 17.401 15.17 31.155 27.1 41.264 12.09 9.944 27.01 14.915 44.74 14.915Zm428.3 225.71c-34.3 0-63.72-4.723-88.24-14.169-24.36-9.28-43.75-21.958-58.17-38.032-14.42-16.075-23.78-34.139-28.09-54.191l97.94-13.174c2.98 7.623 7.71 14.749 14.17 21.377 6.46 6.629 15 11.932 25.6 15.91 10.78 4.143 23.87 6.214 39.28 6.214 23.04 0 42.01-5.634 56.92-16.903 15.09-11.104 22.63-29.747 22.63-55.931v-69.851h-4.48c-4.64 10.606-11.6 20.632-20.88 30.078-9.28 9.447-21.21 17.152-35.8 23.118-14.58 5.966-31.98 8.949-52.2 8.949-28.67 0-54.77-6.629-78.3-19.886-23.37-13.423-42.01-33.89-55.93-61.399-13.75-27.675-20.63-62.642-20.63-104.901 0-43.253 7.04-79.38 21.13-108.381 14.08-29 32.81-50.71 56.18-65.127 23.53-14.418 49.3-21.627 77.3-21.627 21.38 0 39.28 3.646 53.7 10.938 14.42 7.126 26.02 16.075 34.8 26.846 8.95 10.606 15.83 21.047 20.63 31.321h3.98v-64.133h105.15v385.547c0 32.481-7.96 59.659-23.87 81.534-15.91 21.875-37.95 38.281-66.12 49.219-28.01 11.103-60.24 16.654-96.7 16.654Zm2.24-236.15c17.07 0 31.49-4.226 43.25-12.678 11.94-8.617 21.05-20.88 27.35-36.79 6.46-16.074 9.69-35.298 9.69-57.67s-3.15-41.761-9.44-58.168c-6.3-16.572-15.42-29.415-27.35-38.529-11.93-9.115-26.43-13.672-43.5-13.672-17.4 0-32.07 4.723-44 14.169-11.93 9.28-20.96 22.206-27.09 38.778-6.13 16.572-9.2 35.713-9.2 57.422 0 22.041 3.07 41.098 9.2 57.173 6.29 15.909 15.33 28.256 27.09 37.039 11.93 8.617 26.6 12.926 44 12.926ZM2010.25 771V261.909h107.63v210.05h218.5v-210.05h107.39V771h-107.39V560.702h-218.5V771h-107.63Zm765.13-162.571V389.182h105.89V771H2779.6v-69.354h-3.98c-8.61 22.372-22.95 40.353-43 53.942-19.89 13.589-44.16 20.384-72.83 20.384-25.53 0-47.98-5.801-67.37-17.401-19.39-11.6-34.55-28.089-45.49-49.467-10.77-21.378-16.24-46.982-16.41-76.811V389.182h105.9v224.219c.16 22.537 6.21 40.352 18.15 53.444 11.93 13.092 27.92 19.638 47.97 19.638 12.76 0 24.69-2.9 35.8-8.7 11.1-5.966 20.05-14.749 26.84-26.35 6.96-11.6 10.36-25.935 10.2-43.004ZM2967.96 771V261.909h105.9v191.406h3.23c4.64-10.274 11.35-20.715 20.13-31.321 8.95-10.771 20.55-19.72 34.8-26.846 14.42-7.292 32.32-10.938 53.7-10.938 27.84 0 53.53 7.292 77.06 21.875 23.53 14.418 42.34 36.21 56.42 65.377 14.09 29.001 21.13 65.376 21.13 109.126 0 42.59-6.87 78.551-20.63 107.884-13.59 29.166-32.15 51.29-55.68 66.37-23.37 14.915-49.55 22.372-78.55 22.372-20.55 0-38.03-3.397-52.45-10.191-14.25-6.795-25.94-15.329-35.05-25.604-9.12-10.44-16.08-20.964-20.88-31.57h-4.72V771h-104.41Zm103.66-190.909c0 22.703 3.15 42.507 9.45 59.41 6.29 16.904 15.41 30.079 27.34 39.525 11.93 9.28 26.43 13.92 43.5 13.92 17.24 0 31.82-4.723 43.75-14.169 11.93-9.612 20.96-22.869 27.1-39.773 6.29-17.069 9.44-36.707 9.44-58.913 0-22.041-3.06-41.43-9.2-58.168-6.13-16.737-15.16-29.829-27.09-39.275-11.93-9.446-26.6-14.169-44-14.169-17.23 0-31.82 4.557-43.75 13.672-11.77 9.114-20.8 22.04-27.09 38.778-6.3 16.738-9.45 36.458-9.45 59.162Z" fill="#000"/></svg>