<svg width="884" height="884" fill="none" xmlns="http://www.w3.org/2000/svg"><path fill="#FFDE34" d="M0 0h884v884H0z"/><path d="M251.139 212.935c0-13.589 4.806-25.273 14.418-35.05 9.777-9.778 21.543-14.666 35.298-14.666 13.589 0 25.19 4.888 34.801 14.666 9.778 9.777 14.666 21.461 14.666 35.05 0 13.589-4.888 25.272-14.666 35.049-9.611 9.778-21.212 14.667-34.801 14.667-9.114 0-17.483-2.321-25.106-6.961-7.458-4.474-13.424-10.44-17.898-17.897-4.475-7.458-6.712-15.744-6.712-24.858Zm255.043 0c0-13.589 4.806-25.273 14.417-35.05 9.778-9.778 21.544-14.666 35.299-14.666 13.589 0 25.189 4.888 34.801 14.666 9.777 9.777 14.666 21.461 14.666 35.05 0 13.589-4.889 25.272-14.666 35.049-9.612 9.778-21.212 14.667-34.801 14.667-9.115 0-17.484-2.321-25.107-6.961-7.457-4.474-13.423-10.44-17.898-17.897-4.474-7.458-6.711-15.744-6.711-24.858ZM188 368.173h509.091v186.434c0 36.127-5.966 66.04-17.898 89.737-11.766 23.698-27.758 41.43-47.976 53.196-20.052 11.767-42.673 17.65-67.862 17.65-21.212 0-39.11-3.895-53.693-11.684-14.418-7.788-26.018-18.229-34.801-31.321-8.618-12.926-14.915-27.178-18.892-42.755h-4.972c-.828 16.903-6.297 33.392-16.406 49.467-9.943 16.241-24.112 29.664-42.507 40.27-18.395 10.606-40.767 15.909-67.117 15.909-26.018 0-49.384-6.132-70.099-18.395-20.549-12.097-36.873-30.824-48.97-56.179C193.966 635.147 188 602.749 188 563.308V368.173Zm65.874 76.811V555.85c0 36.79 7.126 63.139 21.377 79.048 14.252 15.91 32.067 23.864 53.445 23.864 16.075 0 30.824-4.06 44.247-12.18 13.423-8.121 24.112-19.721 32.067-34.801 7.954-14.915 11.932-32.647 11.932-53.196V444.984H253.874Zm222.975 0v102.912c0 17.234 3.315 32.729 9.944 46.484 6.628 13.92 15.909 24.941 27.841 33.061 12.097 8.286 26.349 12.429 42.755 12.429 21.047 0 38.696-7.374 52.948-22.124 14.252-14.749 21.377-37.369 21.377-67.862v-104.9H476.849Z" fill="#000"/></svg>