<svg version="1.0" xmlns="http://www.w3.org/2000/svg" width="1178.667" height="1178.667" viewBox="0 0 884 884"><path d="M290.5 164.2c-8.6 1.6-17.4 6.5-24.6 13.7-24.9 24.9-17.2 65.8 15.1 80.5 23.9 10.9 52.1.3 64.2-24 3.8-7.7 4.1-9.1 4.6-18.1.8-16.6-2.8-26.2-14-37.9-11.9-12.4-28.1-17.5-45.3-14.2zM545.5 164.2c-16 3-31 16.3-36.5 32.3-14.1 41 28.5 79.9 67.5 61.6 7-3.2 17-12.1 21.3-18.9 9.6-15.1 9.8-37.3.3-52.1-11.6-18.1-31.8-26.9-52.6-22.9zM188.3 480.7c.4 121.3.3 118.6 5.7 143.8 6.4 29.1 18.9 54 36.6 72.5 10.6 11.1 18.8 17.1 32.9 24 21.7 10.7 41.3 14.6 68 13.7 30.5-1.1 50.7-7.7 72.8-23.5 9.2-6.6 21.6-19.2 27.6-28.1 9.6-14 17-33.2 18.7-48 .6-5.4.9-6.1 2.8-6.1s2.6 1.3 5 8.7c6.1 19.1 15.2 35 27 47.2 13 13.4 27.6 21.9 46.1 26.7 13.2 3.4 37.9 4.4 53 2 53.9-8.3 91.8-44.2 106-100.3 6-24 5.8-20.2 6.2-137.6l.4-107.7H187.9l.4 112.7zm228.4 30.5c-.3 58.5-.6 67.2-2.1 73.7-2.8 11.8-7.3 23.2-12.8 32.1-16.3 26.5-41.9 41.2-71.8 41.4-14.5 0-21.1-1.4-32.9-7.1-7.9-3.8-10.8-5.9-18.1-13.1-9.6-9.7-14.1-17.1-18.4-31-5.8-18.6-5.9-19-6.3-93.5l-.4-68.7h163.2l-.4 66.2zm215-4.5c-.5 66.7-.6 69-6.2 85.3-3.8 11-9.3 19.6-18.3 28.2-16 15.3-37.4 22-60.4 18.9-17-2.3-29.6-8.2-41.9-19.8-11.8-11.1-19.7-25-24.7-43.3l-2.6-9.5-.4-60.8-.3-60.7h155.3l-.5 61.7z"/></svg>