<svg width="20" height="17" fill="none" xmlns="http://www.w3.org/2000/svg"><path d="M17.953 4.046c.012.176.012.352.012.53 0 5.422-4.128 11.675-11.675 11.675v-.003A11.616 11.616 0 0 1 0 14.408a8.24 8.24 0 0 0 6.073-1.7 4.108 4.108 0 0 1-3.834-2.85 4.09 4.09 0 0 0 1.853-.07A4.104 4.104 0 0 1 .8 5.766v-.052c.57.317 1.21.494 1.863.513A4.108 4.108 0 0 1 1.393.75a11.646 11.646 0 0 0 8.456 4.286 4.108 4.108 0 0 1 6.993-3.742 8.234 8.234 0 0 0 2.606-.996 4.118 4.118 0 0 1-1.804 2.27A8.16 8.16 0 0 0 20 1.92a8.337 8.337 0 0 1-2.047 2.126Z" fill="#000"/></svg>